<svg xmlns="http://www.w3.org/2000/svg" width="17.118" height="23" viewBox="0 0 17.118 23">
  <path id="Trazado_8954" data-name="Trazado 8954" d="M182.236,39.157a.535.535,0,0,0-.393.217l-8.825,12.3a.534.534,0,0,0-.1.284l-.267,5.081a.535.535,0,0,0,.284.5l.117.067-2.2,3.735a.535.535,0,0,0,.46.811h2.674a.535.535,0,0,0,.443-.242l1.747-2.624.234.125a.535.535,0,0,0,.535-.017l4.279-2.674a.536.536,0,0,0,.2-.226l6.418-13.638a.535.535,0,0,0-.217-.694l-5.081-2.941a.535.535,0,0,0-.309-.067Zm.192,1.237,4.237,2.448L180.7,55.512l-6.46-3.694Zm.242,2.507a1.791,1.791,0,0,0-1.6.9l-2.833,4.947a1.822,1.822,0,0,0,.66,2.465,1.79,1.79,0,0,0,2.449-.652l2.824-4.947a1.829,1.829,0,0,0-.652-2.474,1.781,1.781,0,0,0-.853-.242Zm-.092,1.07a.7.7,0,0,1,.41.1.726.726,0,0,1,.267,1l-2.833,4.947a.7.7,0,0,1-.986.267.726.726,0,0,1-.268-1l2.824-4.939a.739.739,0,0,1,.585-.376Zm-8.632,8.917,5.95,3.393-3.259,2.039-2.9-1.563Zm.05,5.223,1.245.669L173.7,61.086h-1.462Z" transform="translate(-170.777 -39.155)" fill="#fff"/>
</svg>
