<svg xmlns="http://www.w3.org/2000/svg" width="17.561" height="17.27" viewBox="0 0 17.561 17.27">
  <g id="noun-key-2184149" transform="translate(-76.745 -66.502)">
    <path id="Trazado_8955" data-name="Trazado 8955" d="M141.172,68.091a5.411,5.411,0,0,0-1.311,5.475L133.325,80.1a.453.453,0,0,0-.13.27l-.305,2.9h0a.453.453,0,0,0,.525.5l3.829-.656a.453.453,0,0,0,.375-.406l.125-1.386,1.386-.125h0a.453.453,0,0,0,.41-.41l.125-1.386,1.386-.125a.452.452,0,0,0,.28-.13l2.057-2.057a5.421,5.421,0,1,0-2.217-8.993Zm.641.641a4.53,4.53,0,1,1,1.581,7.437.453.453,0,0,0-.476.105l-2.107,2.107-1.607.145h0a.453.453,0,0,0-.41.41l-.125,1.386-1.386.125a.453.453,0,0,0-.41.41l-.125,1.416-2.9.5.22-2.132,6.606-6.606h0a.453.453,0,0,0,.1-.48,4.536,4.536,0,0,1,1.036-4.819Zm3.043.8a1.812,1.812,0,1,0,2.562,0A1.819,1.819,0,0,0,144.855,69.533Zm.641.641a.906.906,0,1,1,0,1.281A.9.9,0,0,1,145.5,70.173Z" transform="translate(-56.142)" fill="#fff"/>
  </g>
</svg>
