<svg xmlns="http://www.w3.org/2000/svg" width="14.778" height="19" viewBox="0 0 14.778 19">
  <g id="noun-description-192324" transform="translate(-154 -28)">
    <path id="Trazado_8948" data-name="Trazado 8948" d="M168.778,46.472V31.167a.606.606,0,0,0-.148-.38l-2.639-2.639a.606.606,0,0,0-.38-.148H154.528a.523.523,0,0,0-.528.528V46.472a.523.523,0,0,0,.528.528H168.25a.523.523,0,0,0,.528-.528Zm-3.167-17.206,1.9,1.9h-1.9Zm2.111,16.678H155.056V29.056h9.5v2.639a.523.523,0,0,0,.528.528h2.639Z" transform="translate(0 0)" fill="#fff"/>
    <path id="Trazado_8949" data-name="Trazado 8949" d="M246.547,252H238.57a.661.661,0,0,0,0,1.31h7.978a.661.661,0,0,0,0-1.31Z" transform="translate(-81.169 -215.675)" fill="#fff"/>
    <path id="Trazado_8950" data-name="Trazado 8950" d="M238.57,196a.661.661,0,0,0,0,1.31h7.978a.661.661,0,0,0,0-1.31Z" transform="translate(-81.169 -161.756)" fill="#fff"/>
    <path id="Trazado_8951" data-name="Trazado 8951" d="M246.547,308H238.57a.661.661,0,0,0,0,1.31h7.978a.661.661,0,0,0,0-1.31Z" transform="translate(-81.169 -269.594)" fill="#fff"/>
    <path id="Trazado_8952" data-name="Trazado 8952" d="M246.547,364H238.57a.661.661,0,0,0,0,1.31h7.978a.661.661,0,0,0,0-1.31Z" transform="translate(-81.169 -323.513)" fill="#fff"/>
    <path id="Trazado_8953" data-name="Trazado 8953" d="M246.547,420H238.57a.661.661,0,0,0,0,1.31h7.978a.661.661,0,0,0,0-1.31Z" transform="translate(-81.169 -377.431)" fill="#fff"/>
  </g>
</svg>
